<?xml version="1.0" encoding="UTF-8"?>
<svg xmlns="http://www.w3.org/2000/svg" width="200" height="100" viewBox="0 0 200 100">

  <rect width="200" height="100" rx="14" fill="#000"/>
  <rect x="3" y="3" width="194" height="94" rx="11"
        fill="none" stroke="#111827" stroke-width="2"/>
  <line x1="100" y1="10" x2="100" y2="90"
        stroke="#333" stroke-width="2"/>
  <circle cx="26" cy="18" r="7" fill="#FFE600"/>
<circle cx="74" cy="18" r="7" fill="#FFE600"/>
<circle cx="50" cy="50" r="7" fill="#FFE600"/>
<circle cx="26" cy="82" r="7" fill="#FFE600"/>
<circle cx="74" cy="82" r="7" fill="#FFE600"/>
  <circle cx="126" cy="16" r="7" fill="#B2FF59"/>
<circle cx="150" cy="16" r="7" fill="#B2FF59"/>
<circle cx="174" cy="16" r="7" fill="#B2FF59"/>
<circle cx="126" cy="38" r="7" fill="#B2FF59"/>
<circle cx="150" cy="38" r="7" fill="#B2FF59"/>
<circle cx="174" cy="38" r="7" fill="#B2FF59"/>
<circle cx="126" cy="62" r="7" fill="#B2FF59"/>
<circle cx="150" cy="62" r="7" fill="#B2FF59"/>
<circle cx="174" cy="62" r="7" fill="#B2FF59"/>
<circle cx="126" cy="84" r="7" fill="#B2FF59"/>
<circle cx="150" cy="84" r="7" fill="#B2FF59"/>
<circle cx="174" cy="84" r="7" fill="#B2FF59"/>

</svg>
