<svg xmlns="http://www.w3.org/2000/svg" width="240" height="120" viewBox="0 0 240 120">
    <defs>
      <linearGradient id="brass" x1="0" y1="0" x2="1" y2="1">
        <stop offset="0" stop-color="#cfa24c"/>
        <stop offset="0.5" stop-color="#f3d27a"/>
        <stop offset="1" stop-color="#8b5f1f"/>
      </linearGradient>
      <linearGradient id="patina" x1="0" y1="1" x2="1" y2="0">
        <stop offset="0" stop-color="#0b6e66" stop-opacity="0.35"/>
        <stop offset="0.6" stop-color="#1aa39a" stop-opacity="0.18"/>
        <stop offset="1" stop-color="#ffffff" stop-opacity="0"/>
      </linearGradient>
      <filter id="softShadow" x="-20%" y="-20%" width="140%" height="140%">
        <feDropShadow dx="0" dy="3" stdDeviation="3" flood-color="#000000" flood-opacity="0.35"/>
      </filter>
      <filter id="innerBevel" x="-20%" y="-20%" width="140%" height="140%">
        <feGaussianBlur in="SourceAlpha" stdDeviation="2" result="blur"/>
        <feOffset dx="0" dy="1" result="offset"/>
        <feComposite in="offset" in2="SourceAlpha" operator="arithmetic" k2="-1" k3="1" result="inner"/>
        <feColorMatrix in="inner" type="matrix"
          values="0 0 0 0 0
                  0 0 0 0 0
                  0 0 0 0 0
                  0 0 0 0.55 0" result="innerAlpha"/>
        <feComposite in="innerAlpha" in2="SourceGraphic" operator="over"/>
      </filter>
    </defs>
    <g filter="url(#softShadow)">
      <rect x="2" y="2" width="236" height="116" rx="16" ry="16" fill="url(#brass)" stroke="#3b250a" stroke-width="4"/>
      <rect x="10" y="10" width="220" height="100" rx="10" ry="10" fill="none" stroke="#2a1a08" stroke-width="2" opacity="0.35"/>
      <rect x="2" y="2" width="236" height="116" rx="16" ry="16" fill="url(#patina)"/>
      <line x1="120.0" y1="14" x2="120.0" y2="106" stroke="#2a1a08" stroke-width="3" opacity="0.35"/>
      <line x1="120.0" y1="16" x2="120.0" y2="104" stroke="#f7e4b2" stroke-width="1.4" opacity="0.25"/>
      <!-- corner gears -->
      <path d="M 41.00,26.00 L 37.51,29.09 L 38.52,33.64 L 33.88,34.09 L 32.02,38.36 L 28.00,36.00 L 23.98,38.36 L 22.12,34.09 L 17.48,33.64 L 18.49,29.09 L 15.00,26.00 L 18.49,22.91 L 17.48,18.36 L 22.12,17.91 L 23.98,13.64 L 28.00,16.00 L 32.02,13.64 L 33.88,17.91 L 38.52,18.36 L 37.51,22.91 Z" fill="#6f4716" opacity="0.75"/><circle cx="28" cy="26" r="3" fill="#2a1a08" opacity="0.8"/>
      <path d="M 225.00,26.00 L 221.51,29.09 L 222.52,33.64 L 217.88,34.09 L 216.02,38.36 L 212.00,36.00 L 207.98,38.36 L 206.12,34.09 L 201.48,33.64 L 202.49,29.09 L 199.00,26.00 L 202.49,22.91 L 201.48,18.36 L 206.12,17.91 L 207.98,13.64 L 212.00,16.00 L 216.02,13.64 L 217.88,17.91 L 222.52,18.36 L 221.51,22.91 Z" fill="#6f4716" opacity="0.75"/><circle cx="212" cy="26" r="3" fill="#2a1a08" opacity="0.8"/>
      <path d="M 41.00,94.00 L 37.51,97.09 L 38.52,101.64 L 33.88,102.09 L 32.02,106.36 L 28.00,104.00 L 23.98,106.36 L 22.12,102.09 L 17.48,101.64 L 18.49,97.09 L 15.00,94.00 L 18.49,90.91 L 17.48,86.36 L 22.12,85.91 L 23.98,81.64 L 28.00,84.00 L 32.02,81.64 L 33.88,85.91 L 38.52,86.36 L 37.51,90.91 Z" fill="#6f4716" opacity="0.75"/><circle cx="28" cy="94" r="3" fill="#2a1a08" opacity="0.8"/>
      <path d="M 225.00,94.00 L 221.51,97.09 L 222.52,101.64 L 217.88,102.09 L 216.02,106.36 L 212.00,104.00 L 207.98,106.36 L 206.12,102.09 L 201.48,101.64 L 202.49,97.09 L 199.00,94.00 L 202.49,90.91 L 201.48,86.36 L 206.12,85.91 L 207.98,81.64 L 212.00,84.00 L 216.02,81.64 L 217.88,85.91 L 222.52,86.36 L 221.51,90.91 Z" fill="#6f4716" opacity="0.75"/><circle cx="212" cy="94" r="3" fill="#2a1a08" opacity="0.8"/>
      <!-- rivets -->
      <circle cx="24" cy="14" r="4" fill="#5a3a12" opacity="0.55"/><circle cx="23" cy="13" r="2.2" fill="#fff" opacity="0.10"/>
      <circle cx="24" cy="106" r="4" fill="#5a3a12" opacity="0.55"/><circle cx="23" cy="105" r="2.2" fill="#fff" opacity="0.10"/>
      <circle cx="60" cy="14" r="4" fill="#5a3a12" opacity="0.55"/><circle cx="59" cy="13" r="2.2" fill="#fff" opacity="0.10"/>
      <circle cx="60" cy="106" r="4" fill="#5a3a12" opacity="0.55"/><circle cx="59" cy="105" r="2.2" fill="#fff" opacity="0.10"/>
      <circle cx="96" cy="14" r="4" fill="#5a3a12" opacity="0.55"/><circle cx="95" cy="13" r="2.2" fill="#fff" opacity="0.10"/>
      <circle cx="96" cy="106" r="4" fill="#5a3a12" opacity="0.55"/><circle cx="95" cy="105" r="2.2" fill="#fff" opacity="0.10"/>
      <circle cx="144" cy="14" r="4" fill="#5a3a12" opacity="0.55"/><circle cx="143" cy="13" r="2.2" fill="#fff" opacity="0.10"/>
      <circle cx="144" cy="106" r="4" fill="#5a3a12" opacity="0.55"/><circle cx="143" cy="105" r="2.2" fill="#fff" opacity="0.10"/>
      <circle cx="180" cy="14" r="4" fill="#5a3a12" opacity="0.55"/><circle cx="179" cy="13" r="2.2" fill="#fff" opacity="0.10"/>
      <circle cx="180" cy="106" r="4" fill="#5a3a12" opacity="0.55"/><circle cx="179" cy="105" r="2.2" fill="#fff" opacity="0.10"/>
      <circle cx="216" cy="14" r="4" fill="#5a3a12" opacity="0.55"/><circle cx="215" cy="13" r="2.2" fill="#fff" opacity="0.10"/>
      <circle cx="216" cy="106" r="4" fill="#5a3a12" opacity="0.55"/><circle cx="215" cy="105" r="2.2" fill="#fff" opacity="0.10"/>
      <circle cx="14" cy="28" r="4" fill="#5a3a12" opacity="0.55"/><circle cx="13" cy="27" r="2.2" fill="#fff" opacity="0.10"/>
      <circle cx="226" cy="28" r="4" fill="#5a3a12" opacity="0.55"/><circle cx="225" cy="27" r="2.2" fill="#fff" opacity="0.10"/>
      <circle cx="14" cy="60" r="4" fill="#5a3a12" opacity="0.55"/><circle cx="13" cy="59" r="2.2" fill="#fff" opacity="0.10"/>
      <circle cx="226" cy="60" r="4" fill="#5a3a12" opacity="0.55"/><circle cx="225" cy="59" r="2.2" fill="#fff" opacity="0.10"/>
      <circle cx="14" cy="92" r="4" fill="#5a3a12" opacity="0.55"/><circle cx="13" cy="91" r="2.2" fill="#fff" opacity="0.10"/>
      <circle cx="226" cy="92" r="4" fill="#5a3a12" opacity="0.55"/><circle cx="225" cy="91" r="2.2" fill="#fff" opacity="0.10"/>
      <!-- pips -->
      <g opacity="0.96">
        <circle cx="54.00" cy="60.00" r="6.5" fill="#1a1a1a"/><circle cx="52.80" cy="58.80" r="3.0" fill="#ffffff" opacity="0.18"/>
      <circle cx="76.00" cy="60.00" r="6.5" fill="#1a1a1a"/><circle cx="74.80" cy="58.80" r="3.0" fill="#ffffff" opacity="0.18"/>
        <circle cx="144.20" cy="35.00" r="6.5" fill="#1a1a1a"/><circle cx="143.00" cy="33.80" r="3.0" fill="#ffffff" opacity="0.18"/>
      <circle cx="205.80" cy="35.00" r="6.5" fill="#1a1a1a"/><circle cx="204.60" cy="33.80" r="3.0" fill="#ffffff" opacity="0.18"/>
      <circle cx="144.20" cy="60.00" r="6.5" fill="#1a1a1a"/><circle cx="143.00" cy="58.80" r="3.0" fill="#ffffff" opacity="0.18"/>
      <circle cx="205.80" cy="60.00" r="6.5" fill="#1a1a1a"/><circle cx="204.60" cy="58.80" r="3.0" fill="#ffffff" opacity="0.18"/>
      <circle cx="144.20" cy="85.00" r="6.5" fill="#1a1a1a"/><circle cx="143.00" cy="83.80" r="3.0" fill="#ffffff" opacity="0.18"/>
      <circle cx="205.80" cy="85.00" r="6.5" fill="#1a1a1a"/><circle cx="204.60" cy="83.80" r="3.0" fill="#ffffff" opacity="0.18"/>
      </g>
      <!-- engraved numerals -->
      <text x="24" y="102" font-family="serif" font-size="18" fill="#2a1a08" opacity="0.55">1</text>
      <text x="216" y="102" text-anchor="end" font-family="serif" font-size="18" fill="#2a1a08" opacity="0.55">6</text>
    </g>
  </svg>
    