<svg xmlns="http://www.w3.org/2000/svg" width="420" height="220" viewBox="0 0 420 220">
  <defs>
    <linearGradient id="g" x1="0" x2="0" y1="0" y2="1">
      <stop offset="0" stop-color="#f8fafc"/>
      <stop offset="1" stop-color="#e7eef7"/>
    </linearGradient>
    <filter id="shadow" x="-20%" y="-20%" width="140%" height="140%">
      <feDropShadow dx="0" dy="6" stdDeviation="8" flood-color="#000" flood-opacity="0.25"/>
    </filter>
  </defs>

  <!-- Tile body -->
  <rect x="8" y="8" width="404" height="204" rx="18" fill="url(#g)" stroke="#cbd5e1" stroke-width="2" filter="url(#shadow)"/>

  <!-- Inner border -->
  <rect x="18" y="18" width="384" height="184" rx="12" fill="rgba(255,255,255,0.65)" stroke="rgba(15,23,42,0.10)" stroke-width="1"/>

  <!-- Divider -->
  <rect x="205.0" y="28" width="10" height="164" rx="6" fill="rgba(15,23,42,0.08)"/>
  <rect x="209.0" y="36" width="2" height="148" rx="1" fill="rgba(15,23,42,0.10)"/>

  <!-- Labels -->
  <text x="32" y="44" font-family="ui-monospace, SFMono-Regular, Menlo, Monaco, Consolas, monospace" font-size="16" font-weight="700" fill="#0f172a" opacity="0.35">4</text>
  <text x="380" y="192" text-anchor="end" font-family="ui-monospace, SFMono-Regular, Menlo, Monaco, Consolas, monospace" font-size="16" font-weight="700" fill="#0f172a" opacity="0.35">9</text>

  <!-- Pips -->
  <g>
    <circle cx="61.17" cy="54.50" r="9.5" fill="#0f172a" opacity="0.92"/>
      <circle cx="161.83" cy="54.50" r="9.5" fill="#0f172a" opacity="0.92"/>
      <circle cx="61.17" cy="128.50" r="9.5" fill="#0f172a" opacity="0.92"/>
      <circle cx="161.83" cy="128.50" r="9.5" fill="#0f172a" opacity="0.92"/>
  </g>
  <g>
    <circle cx="258.17" cy="54.50" r="9.5" fill="#0f172a" opacity="0.92"/>
      <circle cx="308.50" cy="54.50" r="9.5" fill="#0f172a" opacity="0.92"/>
      <circle cx="358.83" cy="54.50" r="9.5" fill="#0f172a" opacity="0.92"/>
      <circle cx="258.17" cy="91.50" r="9.5" fill="#0f172a" opacity="0.92"/>
      <circle cx="308.50" cy="91.50" r="9.5" fill="#0f172a" opacity="0.92"/>
      <circle cx="358.83" cy="91.50" r="9.5" fill="#0f172a" opacity="0.92"/>
      <circle cx="258.17" cy="128.50" r="9.5" fill="#0f172a" opacity="0.92"/>
      <circle cx="308.50" cy="128.50" r="9.5" fill="#0f172a" opacity="0.92"/>
      <circle cx="358.83" cy="128.50" r="9.5" fill="#0f172a" opacity="0.92"/>
  </g>
</svg>
